<?xml version="1.0" standalone="no"?><!DOCTYPE svg PUBLIC "-//W3C//DTD SVG 1.1//EN" "http://www.w3.org/Graphics/SVG/1.1/DTD/svg11.dtd"><svg t="1772176893016" class="icon" viewBox="0 0 1024 1024" version="1.1" xmlns="http://www.w3.org/2000/svg" p-id="12192" xmlns:xlink="http://www.w3.org/1999/xlink" width="200" height="200"><path d="M1024 816.08704A207.83104 207.83104 0 0 1 816.08704 1024H207.872A207.83104 207.83104 0 0 1 0 816.08704V207.872A207.872 207.872 0 0 1 207.872 0h608.21504A207.872 207.872 0 0 1 1024 207.872v608.21504z" fill="#006AB5" p-id="12193"></path><path d="M728.6784 366.55104c0 113.09056-96.13312 204.75904-214.75328 204.75904S299.2128 479.6416 299.2128 366.55104 395.30496 161.792 513.92512 161.792s214.75328 91.66848 214.75328 204.75904z m-37.4784 214.4256a294.83008 294.83008 0 0 1-177.27488 58.5728 294.0928 294.0928 0 0 1-178.83136-59.84256C202.58816 626.0736 143.36 788.15232 143.36 862.24896h737.28c0.08192-73.44128-59.55584-234.33216-189.44-281.27232z m0 0" fill="#FFFFFF" p-id="12194"></path></svg>